<svg xmlns="http://www.w3.org/2000/svg" xmlns:xlink="http://www.w3.org/1999/xlink" id="Слой_1" width="100" height="100" x="0" y="0" enable-background="new 0 0 100 100" version="1.1" viewBox="0 0 100 100" xml:space="preserve"><rect width="140.335" height="100.9" x="-20.344" y="-.217" fill="#F0F0F0"/><polygon fill="#D81827" points="58.595 -.217 41.053 -.217 41.053 40.774 -20.344 40.774 -20.344 59.693 41.053 59.693 41.053 100.684 58.595 100.684 58.595 59.693 119.992 59.693 119.992 40.774 58.595 40.774"/><g><polygon fill="#1E539E" points="87.59 67.78 119.992 87.193 119.992 67.78"/><polygon fill="#1E539E" points="65.076 67.78 119.992 100.684 119.992 91.381 80.608 67.78"/><polygon fill="#1E539E" points="105.367 100.684 65.076 76.544 65.076 100.684"/></g><polygon fill="#F0F0F0" points="65.076 67.78 119.992 100.684 119.992 91.381 80.608 67.78"/><polygon fill="#D81827" points="65.076 67.78 119.992 100.684 119.992 91.381 80.608 67.78"/><g><polygon fill="#1E539E" points="4.421 67.78 -20.344 82.617 -20.344 67.78"/><polygon fill="#1E539E" points="34.572 71.962 34.572 100.684 -13.357 100.684"/></g><polygon fill="#D81827" points="19.041 67.78 -20.344 91.381 -20.344 100.684 -20.344 100.684 34.572 67.78"/><g><polygon fill="#1E539E" points="12.059 32.687 -20.344 13.274 -20.344 32.687"/><polygon fill="#1E539E" points="34.572 32.687 -20.344 -.217 -20.344 9.087 19.041 32.687"/><polygon fill="#1E539E" points="-5.718 -.217 34.572 23.924 34.572 -.217"/></g><polygon fill="#F0F0F0" points="34.572 32.687 -20.344 -.217 -20.344 9.087 19.041 32.687"/><polygon fill="#D81827" points="34.572 32.687 -20.344 -.217 -20.344 9.087 19.041 32.687"/><g><polygon fill="#1E539E" points="95.228 32.687 119.992 17.85 119.992 32.687"/><polygon fill="#1E539E" points="65.076 28.505 65.076 -.217 113.005 -.217"/></g><polygon fill="#D81827" points="80.608 32.687 119.992 9.087 119.992 -.217 119.992 -.217 65.076 32.687"/></svg>