<svg xmlns="http://www.w3.org/2000/svg" xmlns:xlink="http://www.w3.org/1999/xlink" id="Слой_1" x="0" y="0" version="1.1" viewBox="0 0 100 100" xml:space="preserve" style="enable-background:new 0 0 100 100"><style type="text/css">.st0{fill:#d52a1e}.st0,.st1,.st2{display:none}.st1{fill:#1b3994}.st2{fill:#fff}.st3{fill:#de2910}.st4{fill:#ffde00}</style><rect width="152" height="33.8" x="-26" y="66.9" class="st0"/><rect width="152" height="33.8" x="-26" y="33.1" class="st1"/><rect width="152" height="33.8" x="-26" y="-.7" class="st2"/><rect width="159" height="102" x="-3" y="-2" class="st3"/><g><g transform="translate(5,5) scale(3)"><path id="s" d="M12.1,9.5l3.2,9.8l-8.4-6.1h10.3l-8.3,6.1L12.1,9.5z" class="st4"/></g><g transform="translate(10,2) rotate(23.036243)"><path id="s_1_" d="M62.9,2.5l-1,11.4L56,4l10.5,4.5l-11.1,2.6L62.9,2.5z" class="st4"/></g><g transform="translate(12,4) rotate(45.869898)"><path id="s_2_" d="M85.8,4.4l-5.2,10.1L79,3.2l7.9,8.2l-11.2-2L85.8,4.4z" class="st4"/></g><g transform="translate(12,7) rotate(69.945396)"><path id="s_3_" d="M74.2-39.8l-8.9,7l3.1-11l4,10.7l-9.5-6.4L74.2-39.8z" class="st4"/></g><g transform="translate(10,9) rotate(20.659808)"><path id="s_4_" d="M71.7,6l-0.5,11.4L64.9,8l10.6,4l-11,3.1L71.7,6z" class="st4"/></g></g></svg>